<svg xmlns="http://www.w3.org/2000/svg" viewBox="0 0 258.07 228.62"><defs><style>.cls-1,.cls-10,.cls-11,.cls-12,.cls-13,.cls-14,.cls-15,.cls-16,.cls-17,.cls-18,.cls-19,.cls-2,.cls-20,.cls-21,.cls-22,.cls-23,.cls-24,.cls-25,.cls-26,.cls-27,.cls-28,.cls-29,.cls-3,.cls-30,.cls-31,.cls-32,.cls-4,.cls-5,.cls-6,.cls-7,.cls-8,.cls-9{fill:none;stroke:#0a0c06;stroke-linecap:round;stroke-linejoin:round;}.cls-1{stroke-width:0.97px;}.cls-2{stroke-width:0.97px;}.cls-3{stroke-width:0.97px;}.cls-4{stroke-width:0.97px;}.cls-5{stroke-width:0.97px;}.cls-6{stroke-width:0.97px;}.cls-7{stroke-width:0.97px;}.cls-8{stroke-width:0.97px;}.cls-9{stroke-width:0.97px;}.cls-10{stroke-width:0.97px;}.cls-11{stroke-width:0.97px;}.cls-12{stroke-width:0.97px;}.cls-13{stroke-width:0.97px;}.cls-14{stroke-width:0.97px;}.cls-15{stroke-width:0.97px;}.cls-16{stroke-width:0.97px;}.cls-17{stroke-width:0.97px;}.cls-18{stroke-width:0.97px;}.cls-19{stroke-width:0.97px;}.cls-20{stroke-width:0.97px;}.cls-21{stroke-width:0.97px;}.cls-22{stroke-width:0.97px;}.cls-23{stroke-width:0.97px;}.cls-24{stroke-width:0.97px;}.cls-25{stroke-width:1.97px;}.cls-26{stroke-width:1.97px;}.cls-27{stroke-width:1.97px;}.cls-28{stroke-width:0.97px;}.cls-29{stroke-width:0.97px;}.cls-30{stroke-width:0.97px;}.cls-31{stroke-width:0.97px;}.cls-32{stroke-width:0.97px;}</style></defs><g id="Layer_1" data-name="Layer 1"><path class="cls-1" d="M225.61,217.37a13.59,13.59,0,0,0-13.62,0v19.07c5-2.29,8.6-2.29,13.62,0V217.37Zm0,0a15.33,15.33,0,0,1,4.48-1.61v5.11l2.08-2.59,2.07,2.59v-5.2a15.08,15.08,0,0,1,5,1.7v19.07c-5-2.29-8.6-2.29-13.62,0V217.37Z" transform="translate(-5.53 -10.71)"/><path class="cls-2" d="M46.29,123.47v3.72a13.78,13.78,0,0,1,11.48,0V113.36a13.14,13.14,0,0,0-11.48,0v2.76" transform="translate(-5.53 -10.71)"/><path class="cls-3" d="M57.81,101c4.7,0,6.65,3.64,6.65,7.31a7.81,7.81,0,0,1-1,3.72,13.61,13.61,0,0,0-5.7,1.32A13.77,13.77,0,0,0,52.14,112a7.78,7.78,0,0,1-1-3.72c0-3.67,2-7.31,6.66-7.31Zm-5,2.12c.47,3.66,10.15,1.56,11.61,5.19m-19.08,8.8c.83.41,1,.67,2.84.19" transform="translate(-5.53 -10.71)"/><path class="cls-3" d="M44.88,118.66c1.21.41,1.41.67,4.1.19" transform="translate(-5.53 -10.71)"/><path class="cls-4" d="M45,120.21c1.14.41,1.33.67,3.89.19" transform="translate(-5.53 -10.71)"/><path class="cls-5" d="M45.31,121.75c.81.41.94.67,2.74.19" transform="translate(-5.53 -10.71)"/><path class="cls-2" d="M69.25,123.47v3.72a13.78,13.78,0,0,0-11.48,0V113.36a13.14,13.14,0,0,1,11.48,0v2.76" transform="translate(-5.53 -10.71)"/><path class="cls-3" d="M70.16,117.12c-.83.41-1,.67-2.84.19" transform="translate(-5.53 -10.71)"/><path class="cls-3" d="M70.66,118.66c-1.21.41-1.41.67-4.1.19" transform="translate(-5.53 -10.71)"/><path class="cls-4" d="M70.58,120.21c-1.14.41-1.33.67-3.89.19" transform="translate(-5.53 -10.71)"/><path class="cls-5" d="M70.23,121.75c-.81.41-.94.67-2.74.19" transform="translate(-5.53 -10.71)"/><path class="cls-6" d="M111.7,121.1c.68-1.65-.94-3.75-1.29-5.57a1.19,1.19,0,0,1,2.32-.54c.52,1.53,1.61,4.33,2.92,3.29" transform="translate(-5.53 -10.71)"/><path class="cls-7" d="M118.72,118.06a10.13,10.13,0,0,1-2.61,4.83,6.91,6.91,0,0,0-2.32,4.07m-4.34-.3a8.26,8.26,0,0,0,.57-3.33c-.28-1-1-1.78-.76-3.26.2-.78.51-1.92-.29-2.52" transform="translate(-5.53 -10.71)"/><path class="cls-8" d="M113.69,117.27l0-14.48a11.41,11.41,0,0,0-11.49,0V119c3.24-1.5,5.79-1.84,8.73-1" transform="translate(-5.53 -10.71)"/><path class="cls-8" d="M113.72,102.79a11.39,11.39,0,0,1,11.48,0V119a14,14,0,0,0-10-.55" transform="translate(-5.53 -10.71)"/><path class="cls-9" d="M213.38,126.3c1.41-1.35,2.84-2.35,3.83-3.92.64-1,.09-3.09,2.83-4.7,1.65-1,2.41-1.56,3.66-2.37a5.09,5.09,0,0,1,1.33-.4m.48,4.76a13.87,13.87,0,0,0,4.27-2.91c.42-.42,2.82-4,3.72-4a.81.81,0,0,1,.8.11,1.07,1.07,0,0,1,.26,1.44c-.61,1-2.13,3.23-2.7,4a17.36,17.36,0,0,1-5.07,3.89c-2.28.84-3.92.95-6,3.4" transform="translate(-5.53 -10.71)"/><path class="cls-10" d="M225.1,119.34l-.08-5,12.63-12.44.19,6.55-3.92,4.25M233.5,106a11.48,11.48,0,0,0-6.6-3.66l-10.81,10.11c2.49.6,4.76,3,5.79,4.08" transform="translate(-5.53 -10.71)"/><path class="cls-9" d="M225.85,119.56c-1.37.54-1.52-.37-.83-1.19" transform="translate(-5.53 -10.71)"/><path class="cls-11" d="M45.74,158.45H69.8v15.39H45.74V158.45Zm10.09,15.39a11.35,11.35,0,0,0-.95,4.81c0,.28,0,.56,0,.83h0c0,.48,1.28.88,2.86.88s2.86-.4,2.86-.88h0c0-.27,0-.55,0-.83a11.36,11.36,0,0,0-.94-4.81" transform="translate(-5.53 -10.71)"/><path class="cls-11" d="M61,178.08c2.63.29,4.46.94,4.46,1.69,0,1-3.42,1.87-7.64,1.87s-7.64-.84-7.64-1.87c0-.75,1.83-1.4,4.46-1.69" transform="translate(-5.53 -10.71)"/><path class="cls-12" d="M57.77,161.73a7.92,7.92,0,0,0-7.64,0V172a8.37,8.37,0,0,1,7.64,0V161.73Z" transform="translate(-5.53 -10.71)"/><path class="cls-12" d="M57.77,161.73a7.92,7.92,0,0,1,7.64,0V172a8.37,8.37,0,0,0-7.64,0V161.73Z" transform="translate(-5.53 -10.71)"/><path class="cls-13" d="M101.06,160.05h25.31a1.88,1.88,0,0,1,1.72,2v16a1.88,1.88,0,0,1-1.72,2H101.06a1.88,1.88,0,0,1-1.71-2v-16a1.88,1.88,0,0,1,1.71-2Zm21.87,0v20m2.57-11a1,1,0,1,1-1,1,1,1,0,0,1,1-1Z" transform="translate(-5.53 -10.71)"/><path class="cls-14" d="M111.29,164.66a8.55,8.55,0,0,0-8.61,0v12.13a9,9,0,0,1,8.61,0V164.66Z" transform="translate(-5.53 -10.71)"/><path class="cls-14" d="M111.29,164.66a8.55,8.55,0,0,1,8.61,0v12.13a9,9,0,0,0-8.61,0V164.66Z" transform="translate(-5.53 -10.71)"/><path class="cls-15" d="M155.2,178.18V161.91h28.93v16.27Zm25,0V161.91" transform="translate(-5.53 -10.71)"/><line class="cls-16" x1="176.59" y1="160.25" x2="176.59" y2="158.41"/><line class="cls-15" x1="152.12" y1="167.47" x2="152.12" y2="151.19"/><path class="cls-16" d="M169,165.31a7.39,7.39,0,0,0-7.44,0v10.47a7.79,7.79,0,0,1,7.44,0V165.31Z" transform="translate(-5.53 -10.71)"/><path class="cls-16" d="M169,165.31a7.37,7.37,0,0,1,7.43,0v10.47a7.77,7.77,0,0,0-7.43,0V165.31Z" transform="translate(-5.53 -10.71)"/><path class="cls-17" d="M212.12,159.47h27V175.2h-27V159.47Zm11.71,0h3.56v-2.41h-3.56v2.41Z" transform="translate(-5.53 -10.71)"/><line class="cls-18" x1="215.22" y1="172.31" x2="217.17" y2="164.48"/><line class="cls-18" x1="224.95" y1="172.31" x2="222.99" y2="164.48"/><path class="cls-19" d="M225.61,162.85a6.89,6.89,0,0,0-6.94,0v9.78a7.3,7.3,0,0,1,6.94,0v-9.78Z" transform="translate(-5.53 -10.71)"/><path class="cls-19" d="M225.61,162.85a6.89,6.89,0,0,1,6.94,0v9.78a7.3,7.3,0,0,0-6.94,0v-9.78Z" transform="translate(-5.53 -10.71)"/><path class="cls-20" d="M60.63,238.4c0-.66,0-1.54-.45-1.83-1.82-1.14-1.76-2.22-4-4.09a1,1,0,1,1,1.3-1.59c.44.36,1.2,1,1.86,1.57a.87.87,0,0,0,1.52-.57V224.8a.87.87,0,1,1,1.73,0v4a.87.87,0,1,1,1.74,0v.4a.87.87,0,0,1,1.74,0v.82a.87.87,0,1,1,1.73,0,10.57,10.57,0,0,1-.94,5.5,8,8,0,0,0-.35,2.79" transform="translate(-5.53 -10.71)"/><path class="cls-19" d="M57.77,215.23a12.15,12.15,0,0,0-12.2,0v17.18c3.75-1.73,6.63-2,10.11-.83" transform="translate(-5.53 -10.71)"/><path class="cls-19" d="M57.77,230.81V215.23a12.15,12.15,0,0,1,12.2,0v17.18q-1.05-.48-2-.81" transform="translate(-5.53 -10.71)"/><path class="cls-21" d="M113.26,214.7a11.51,11.51,0,0,0-11.6,0V231c4.25-2,7.32-2,11.6,0V214.7Z" transform="translate(-5.53 -10.71)"/><path class="cls-21" d="M113.26,231V214.7a11.5,11.5,0,0,1,11.59,0V231" transform="translate(-5.53 -10.71)"/><path class="cls-22" d="M117,224.28a3.67,3.67,0,1,1-1.46,5,3.66,3.66,0,0,1,1.46-5Zm3.52,6.44,1.08,2m-1.13.62,2.26-1.24,3,5.55-2.27,1.24-3-5.55Z" transform="translate(-5.53 -10.71)"/><path class="cls-17" d="M179.43,233.18c-.93-1.44-2.65-2.18-3.86-3.29a1.06,1.06,0,1,1,1.37-1.61c1.18.81,4.16,3.05,4,1.27m0-5.19a3.83,3.83,0,0,1,1.45,2.2c.26.93.22,2.9.52,5a12.11,12.11,0,0,0,1.13,3.89M180.18,237a1.63,1.63,0,0,0-.78-1.33c-.72-.56-1.62-.76-2.26-1.92a3.75,3.75,0,0,0-3.75-2.59" transform="translate(-5.53 -10.71)"/><path class="cls-3" d="M176.94,231.07a12.52,12.52,0,0,0-7.28,1.3V216.52a11.17,11.17,0,0,1,11.26,0v13" transform="translate(-5.53 -10.71)"/><path class="cls-17" d="M159.9,233.18c.92-1.44,2.65-2.18,3.85-3.29a1.05,1.05,0,0,0-1.36-1.61c-1.18.81-4.16,3.05-4,1.27m0-5.19a3.83,3.83,0,0,0-1.45,2.2c-.26.93-.23,2.9-.52,5a12.11,12.11,0,0,1-1.13,3.89m3.83,1.54a1.66,1.66,0,0,1,.79-1.33c.72-.56,1.62-.76,2.25-1.92a3.77,3.77,0,0,1,3.76-2.59" transform="translate(-5.53 -10.71)"/><path class="cls-3" d="M162.39,231.07a12.47,12.47,0,0,1,7.27,1.3V216.52a11.15,11.15,0,0,0-11.25,0v13" transform="translate(-5.53 -10.71)"/><path class="cls-23" d="M168.93,107.46a.81.81,0,0,1,1.61,0" transform="translate(-5.53 -10.71)"/><path class="cls-14" d="M165.4,106c1,0,3.29-.11,3.29.84s-1,2.41-2,2.41a3,3,0,0,1-2.67-1.5c-.38-.91.36-1.75,1.39-1.75Z" transform="translate(-5.53 -10.71)"/><path class="cls-14" d="M174.07,106c-1,0-3.29-.11-3.29.84s1,2.41,2,2.41a3,3,0,0,0,2.68-1.5c.37-.91-.36-1.75-1.4-1.75Z" transform="translate(-5.53 -10.71)"/><path class="cls-17" d="M182.41,125.12c-5.69-1.68-7.12-.72-12.75,1.37-5.62-2.09-7-3-12.74-1.37" transform="translate(-5.53 -10.71)"/><path class="cls-11" d="M156.92,125.12l3.17-2.87c3.7-.44,6.12-.22,9.57,1.73,3.51-1.75,6.25-2.59,9.58-1.73l3.17,2.87" transform="translate(-5.53 -10.71)"/><path class="cls-9" d="M174.72,108.93a5,5,0,0,1-10,0m.07-3.15a5,5,0,0,1,9.83,0" transform="translate(-5.53 -10.71)"/><path class="cls-20" d="M160.78,121.64a8.09,8.09,0,0,1,8.06-8.06h1.79a8.08,8.08,0,0,1,8.06,8.06" transform="translate(-5.53 -10.71)"/><line class="cls-17" x1="159.11" y1="111.45" x2="159.4" y2="109.48"/><line class="cls-24" x1="169.16" y1="111.45" x2="168.58" y2="109.48"/></g><g id="Layer_2" data-name="Layer 2"><path class="cls-25" d="M14.13,16.58a50.77,50.77,0,0,0-4.75,3l10.19,28c7.81-4.67,13.9-6,23.33-1.43" transform="translate(-5.53 -10.71)"/><path class="cls-26" d="M33.53,20.63c7.61-4.59,15.68-4.5,24.35-2.44l10.73,28c-8.18-1.59-14.22-1.71-20.18.64-.17,6.67-8.81,9.27-9.46,1.8-8.33-1.94-14.48.45-21.72,4.6q-5.37-14-10.73-28A26.68,26.68,0,0,1,10.63,23" transform="translate(-5.53 -10.71)"/><path class="cls-27" d="M42.9,46.06,33.53,20.63C30.19,14.22,20.72,10.54,12.66,12l9.22,29c6.35-2.24,15.33-4.49,21,5.06" transform="translate(-5.53 -10.71)"/></g><g id="Layer_3" data-name="Layer 3"><path class="cls-28" d="M109,23.14a11.51,11.51,0,0,0-11.6,0V39.47c4.25-2,7.32-2,11.6,0V23.14ZM97.37,25.9A20.5,20.5,0,0,0,95.47,27l-.29,15.84c5.11-2.82,8.27-3.2,11.2-1.9.16,1.75,1.63,2,2.59,2m11.6-17a20.5,20.5,0,0,1,1.9,1.09l.29,15.84c-5.11-2.82-8.27-3.2-11.2-1.9-.16,1.75-1.63,2-2.59,2" transform="translate(-5.53 -10.71)"/><path class="cls-28" d="M109,23.14a11.51,11.51,0,0,1,11.6,0V39.47c-4.25-2-7.32-2-11.6,0V23.14Z" transform="translate(-5.53 -10.71)"/></g><g id="Layer_4" data-name="Layer 4"><path class="cls-29" d="M178,25.45h4.29V46.92H178V25.45Zm15.48-3.7-11.19,3.7V46.92l11.19-3.7V21.75Z" transform="translate(-5.53 -10.71)"/><line class="cls-30" x1="174.66" y1="14.74" x2="185.09" y2="9.8"/><polygon class="cls-29" points="161.32 11.03 172.51 14.74 172.51 36.21 161.32 32.5 161.32 11.03 161.32 11.03"/><line class="cls-30" x1="174.66" y1="14.74" x2="164.22" y2="9.8"/><path class="cls-29" d="M178.37,29.3h4m-4,2.47h4" transform="translate(-5.53 -10.71)"/></g><g id="Layer_5" data-name="Layer 5"><path class="cls-31" d="M234.91,24.3l16.86-2.36,11.35,13.65L246.25,38,234.91,24.3Zm0,0-1.41,7.55L244.85,45.5l1.4-7.55L234.91,24.3Zm26.8,18.84L244.85,45.5,233.5,31.85" transform="translate(-5.53 -10.71)"/><path class="cls-32" d="M248.09,40.15l13.06-1.83M247.7,42.6l13.06-1.83" transform="translate(-5.53 -10.71)"/></g></svg>